<svg width="25" height="25" viewBox="0 0 25 25" fill="none" xmlns="http://www.w3.org/2000/svg">
<path d="M17.7491 1.58849C16.7711 1.49552 15.7851 1.63649 14.8724 1.99977C13.9597 2.36305 13.1465 2.93822 12.5 3.67779C11.8541 2.93786 11.0412 2.36242 10.1287 1.9991C9.21616 1.63578 8.23022 1.49503 7.25249 1.58849C5.62733 1.7811 4.1359 2.58352 3.07967 3.83357C2.02343 5.08361 1.48117 6.68804 1.56249 8.32255C1.62733 11.1237 2.70686 12.9818 4.77218 13.8527L6.01116 21.2853C6.11333 21.8984 6.43383 22.4538 6.91351 22.8491C7.39319 23.2444 7.99966 23.4528 8.62098 23.4359C9.2423 23.4189 9.83653 23.1778 10.294 22.7571C10.7514 22.3363 11.0413 21.7642 11.1099 21.1465L11.5417 17.2636C11.5678 17.0278 11.68 16.8098 11.8569 16.6515C12.0337 16.4932 12.2627 16.4056 12.5 16.4056C12.7373 16.4056 12.9663 16.4932 13.1431 16.6515C13.3199 16.8098 13.4321 17.0278 13.4583 17.2636L13.8901 21.1465C13.9587 21.7642 14.2485 22.3363 14.706 22.7571C15.1634 23.1778 15.7577 23.4189 16.379 23.4359C17.0003 23.4528 17.6068 23.2444 18.0865 22.8491C18.5661 22.4538 18.8866 21.8984 18.9888 21.2853L20.2278 13.852C21.2249 13.4468 22.0586 12.7211 22.5975 11.7895C23.1643 10.7228 23.4532 9.53042 23.4375 8.32255C23.5189 6.68828 22.9768 5.08404 21.9209 3.83403C20.865 2.58402 19.3739 1.78145 17.7491 1.58849ZM21.2448 11.007C20.8103 11.749 20.1089 12.2971 19.2839 12.5394C19.1492 12.5842 19.0292 12.6649 18.937 12.7729C18.8447 12.8808 18.7837 13.0119 18.7605 13.152L17.4476 21.0282C17.4076 21.2692 17.2817 21.4877 17.0932 21.6432C16.9047 21.7987 16.6662 21.8807 16.422 21.8741C16.1777 21.8675 15.944 21.7727 15.7642 21.6073C15.5843 21.4418 15.4704 21.2169 15.4434 20.974L15.0116 17.0907C14.9432 16.4723 14.6491 15.9009 14.1856 15.4859C13.7222 15.0709 13.1219 14.8414 12.4998 14.8414C11.8777 14.8414 11.2775 15.0709 10.814 15.4859C10.3506 15.9009 10.0565 16.4723 9.98811 17.0907L9.55624 20.9735C9.52928 21.2164 9.41536 21.4413 9.2355 21.6067C9.05564 21.7722 8.82199 21.8669 8.57771 21.8735C8.33343 21.8801 8.09501 21.7981 7.90648 21.6426C7.71795 21.4871 7.59205 21.2687 7.55202 21.0276L6.23929 13.152C6.21595 13.0118 6.1548 12.8806 6.06245 12.7726C5.97009 12.6646 5.85001 12.5838 5.71514 12.539C4.00163 11.9702 3.17913 10.6186 3.12499 8.28599C3.0528 7.0483 3.45287 5.82932 4.24444 4.87512C5.036 3.92092 6.16011 3.30257 7.38983 3.1449C8.2677 3.06203 9.15105 3.23013 9.93712 3.62965C10.7232 4.02917 11.3797 4.64368 11.8301 5.40169L11.8332 5.40662C12.272 6.13194 12.5027 6.96405 12.5 7.81177C12.5 8.01897 12.5823 8.21769 12.7288 8.3642C12.8753 8.51071 13.074 8.59302 13.2812 8.59302C13.4884 8.59302 13.6872 8.51071 13.8337 8.3642C13.9802 8.21769 14.0625 8.01897 14.0625 7.81177C14.0641 6.84869 13.8416 5.89844 13.4125 5.03622C13.8883 4.38384 14.5256 3.86645 15.2618 3.53485C15.998 3.20326 16.8078 3.06887 17.6117 3.1449C18.8408 3.30274 19.9643 3.92086 20.7555 4.87456C21.5467 5.82825 21.9468 7.04655 21.875 8.28365C21.8947 9.22971 21.6781 10.1658 21.2448 11.007Z" fill="#212123"/>
</svg>
